<svg xmlns="http://www.w3.org/2000/svg" width="512" height="512" viewBox="0 0 512 512">
  <rect width="512" height="512" fill="#1f6334"/>
  <rect width="512" height="512" fill="#000000" opacity="0.12"/>
  <g fill="#ffcf6a">
    <!-- row0 -->
    <rect x="116" y="96" width="56" height="56"/>
    <rect x="172" y="96" width="56" height="56"/>
    <rect x="284" y="96" width="56" height="56"/>
    <rect x="340" y="96" width="56" height="56"/>
    <!-- row1 -->
    <rect x="60" y="152" width="56" height="56"/>
    <rect x="116" y="152" width="56" height="56"/>
    <rect x="172" y="152" width="56" height="56"/>
    <rect x="228" y="152" width="56" height="56"/>
    <rect x="284" y="152" width="56" height="56"/>
    <rect x="340" y="152" width="56" height="56"/>
    <rect x="396" y="152" width="56" height="56"/>
    <!-- row2 -->
    <rect x="60" y="208" width="56" height="56"/>
    <rect x="116" y="208" width="56" height="56"/>
    <rect x="172" y="208" width="56" height="56"/>
    <rect x="228" y="208" width="56" height="56"/>
    <rect x="284" y="208" width="56" height="56"/>
    <rect x="340" y="208" width="56" height="56"/>
    <rect x="396" y="208" width="56" height="56"/>
    <!-- row3 -->
    <rect x="116" y="264" width="56" height="56"/>
    <rect x="172" y="264" width="56" height="56"/>
    <rect x="228" y="264" width="56" height="56"/>
    <rect x="284" y="264" width="56" height="56"/>
    <rect x="340" y="264" width="56" height="56"/>
    <!-- row4 -->
    <rect x="172" y="320" width="56" height="56"/>
    <rect x="228" y="320" width="56" height="56"/>
    <rect x="284" y="320" width="56" height="56"/>
    <!-- row5 -->
    <rect x="228" y="376" width="56" height="56"/>
  </g>
</svg>
